<svg width="26" height="30" viewBox="0 0 26 30" fill="none" xmlns="http://www.w3.org/2000/svg">
<g filter="url(#filter0_d_4_1061)">
<path d="M10 11H8V13H10V11ZM14 11H12V13H14V11ZM18 11H16V13H18V11ZM20 4H19V2H17V4H9V2H7V4H6C4.89 4 4.01 4.9 4.01 6L4 20C4 21.1 4.89 22 6 22H20C21.1 22 22 21.1 22 20V6C22 4.9 21.1 4 20 4ZM20 20H6V9H20V20Z" fill="#4A56E2"/>
</g>
<defs>
<filter id="filter0_d_4_1061" x="-3" y="0" width="32" height="32" filterUnits="userSpaceOnUse" color-interpolation-filters="sRGB">
<feFlood flood-opacity="0" result="BackgroundImageFix"/>
<feColorMatrix in="SourceAlpha" type="matrix" values="0 0 0 0 0 0 0 0 0 0 0 0 0 0 0 0 0 0 127 0" result="hardAlpha"/>
<feOffset dy="4"/>
<feGaussianBlur stdDeviation="2"/>
<feComposite in2="hardAlpha" operator="out"/>
<feColorMatrix type="matrix" values="0 0 0 0 0 0 0 0 0 0 0 0 0 0 0 0 0 0 0.25 0"/>
<feBlend mode="normal" in2="BackgroundImageFix" result="effect1_dropShadow_4_1061"/>
<feBlend mode="normal" in="SourceGraphic" in2="effect1_dropShadow_4_1061" result="shape"/>
</filter>
</defs>
</svg>
