<svg aria-hidden="true" style="position: absolute; width: 0; height: 0; overflow: hidden;" version="1.1" xmlns="http://www.w3.org/2000/svg" xmlns:xlink="http://www.w3.org/1999/xlink">
<defs>
<symbol id="icon-lock" viewBox="0 0 32 32">
<path fill="#e0e0e0" style="fill: var(--color1, #e0e0e0)" d="M24 10.667h-1.333v-2.667c0-3.68-2.987-6.667-6.667-6.667s-6.667 2.987-6.667 6.667v2.667h-1.333c-1.467 0-2.667 1.2-2.667 2.667v13.333c0 1.467 1.2 2.667 2.667 2.667h16c1.467 0 2.667-1.2 2.667-2.667v-13.333c0-1.467-1.2-2.667-2.667-2.667zM16 22.667c-1.467 0-2.667-1.2-2.667-2.667s1.2-2.667 2.667-2.667 2.667 1.2 2.667 2.667-1.2 2.667-2.667 2.667zM20.133 10.667h-8.267v-2.667c0-2.28 1.853-4.133 4.133-4.133s4.133 1.853 4.133 4.133v2.667z"></path>
</symbol>
<symbol id="icon-account" viewBox="0 0 32 32">
<path fill="#e0e0e0" style="fill: var(--color1, #e0e0e0)" d="M4 6.667v18.667c0 1.473 1.194 2.667 2.667 2.667v0h18.667c1.467 0 2.667-1.2 2.667-2.667v-18.667c0-1.467-1.2-2.667-2.667-2.667h-18.667c-1.473 0-2.667 1.194-2.667 2.667v0zM20 12c0 2.213-1.787 4-4 4s-4-1.787-4-4 1.787-4 4-4 4 1.787 4 4zM8 22.667c0-2.667 5.333-4.133 8-4.133s8 1.467 8 4.133v1.333h-16v-1.333z"></path>
</symbol>
<symbol id="icon-email" viewBox="0 0 32 32">
<path fill="#e0e0e0" style="fill: var(--color1, #e0e0e0)" d="M26.667 5.333h-21.333c-1.467 0-2.653 1.2-2.653 2.667l-0.013 16c0 1.467 1.2 2.667 2.667 2.667h21.333c1.467 0 2.667-1.2 2.667-2.667v-16c0-1.467-1.2-2.667-2.667-2.667zM26.667 10.667l-10.667 6.667-10.667-6.667v-2.667l10.667 6.667 10.667-6.667v2.667z"></path>
</symbol>
<symbol id="icon-wallet" viewBox="0 0 32 32">
<path fill="#24cca7" style="fill: var(--color2, #24cca7)" d="M3.755 7.619l16.213-4.538-0.859-1.779c-0.563-1.156-1.933-1.633-3.061-1.057l-14.512 7.374h2.219zM24.813 3.047c-0.195 0-0.39 0.029-0.586 0.087l-15.011 4.484h18.431l-0.693-2.779c-0.266-1.084-1.163-1.792-2.14-1.792z"></path>
<path fill="#4a56e2" style="fill: var(--color3, #4a56e2)" d="M28.359 8.573h-26.559c-0.001 0-0.003 0-0.004 0-0.821 0-1.514 0.55-1.729 1.303l-0.003 0.013c-0.038 0.149-0.064 0.307-0.064 0.467v19.863c0 0.981 0.805 1.781 1.796 1.781h26.56c0.992 0 1.796-0.799 1.796-1.782v-4.974h-10.661c-1.685 0-3.055-1.358-3.055-3.029v-3.967c0-0.819 0.331-1.565 0.866-2.11 0.552-0.566 1.322-0.917 2.174-0.917 0.004 0 0.009 0 0.013 0h10.664v-4.864c-0.002-0.984-0.801-1.781-1.786-1.781-0.002 0-0.005 0-0.007 0h0z"></path>
<path fill="#4a56e2" style="fill: var(--color3, #4a56e2)" d="M31.413 16.926c-0.318-0.29-0.742-0.467-1.208-0.467-0.001 0-0.001 0-0.002 0h-10.712c-0.992 0-1.797 0.8-1.797 1.783v3.968c0 0.983 0.805 1.781 1.797 1.781h10.713c0.205 0 0.398-0.035 0.581-0.096 0.238-0.078 0.449-0.206 0.629-0.37 0.36-0.325 0.585-0.794 0.586-1.315v-3.968c0-0.521-0.226-0.992-0.587-1.316zM23.243 20.58c-0.002 0.493-0.403 0.892-0.896 0.892-0.001 0-0.002 0-0.002 0h-0.597c-0.001 0-0.001 0-0.002 0-0.493 0-0.894-0.399-0.896-0.892v-0.592c0-0.285 0.133-0.538 0.346-0.699 0.151-0.118 0.343-0.19 0.552-0.192h0.598c0.001 0 0.001 0 0.002 0 0.493 0 0.893 0.398 0.896 0.89v0.592z"></path>
</symbol>
<symbol id="icon-statistic" viewBox="0 0 32 32">
<path fill="#6e78e8" style="fill: var(--color4, #6e78e8)" d="M5.053 0h21.895c2.791 0 5.053 2.262 5.053 5.053v21.895c0 2.791-2.262 5.053-5.053 5.053h-21.895c-2.791 0-5.053-2.262-5.053-5.053v-21.895c0-2.791 2.262-5.053 5.053-5.053zM24.842 13.941c1.080 0 1.965-0.926 1.965-2.058s-0.884-2.058-1.965-2.058c-1.080 0-1.965 0.926-1.965 2.058 0 0.185 0.019 0.36 0.068 0.525l-3.487 3.664c-0.145-0.046-0.311-0.072-0.483-0.072-0.010 0-0.020 0-0.029 0l0.001-0c-0.177 0-0.354 0.020-0.511 0.072l-2.505-2.624c0.050-0.165 0.069-0.35 0.069-0.536 0-1.132-0.884-2.058-1.965-2.058s-1.965 0.926-1.965 2.058c0 0.185 0.020 0.371 0.069 0.536l-4.48 4.683c-0.142-0.046-0.306-0.073-0.477-0.073-0.009 0-0.017 0-0.026 0l0.001-0c-1.080 0-1.965 0.926-1.965 2.059s0.884 2.058 1.965 2.058 1.965-0.926 1.965-2.058c0-0.185-0.019-0.36-0.068-0.525l4.47-4.694c0.157 0.051 0.334 0.072 0.511 0.072s0.354-0.021 0.51-0.072l2.505 2.625c-0.043 0.151-0.068 0.326-0.068 0.505 0 0.010 0 0.021 0 0.031l-0-0.002c0 1.133 0.884 2.059 1.965 2.059s1.965-0.926 1.965-2.059c0-0.185-0.019-0.371-0.068-0.535l3.497-3.654c0.157 0.051 0.324 0.072 0.501 0.072z"></path>
</symbol>
<symbol id="icon-home" viewBox="0 0 32 32">
<path fill="#6e78e8" style="fill: var(--color4, #6e78e8)" d="M5.053 0c-2.791 0-5.053 2.262-5.053 5.053v0 21.895c0 2.791 2.262 5.053 5.053 5.053v0h21.895c2.791 0 5.053-2.262 5.053-5.053v0-21.895c0-2.791-2.262-5.053-5.053-5.053v0h-21.895zM13.417 17.987v6.901h-5.754v-9.203h-3.453l11.509-10.353 11.508 10.353h-3.453v9.203h-5.754v-6.901h-4.604z"></path>
</symbol>
<symbol id="icon-exit" viewBox="0 0 32 32">
<path fill="#bdbdbd" style="fill: var(--color5, #bdbdbd)" d="M20.052 23.236h2.498v4.999c-0.002 2.069-1.679 3.746-3.747 3.748h-15.054c-2.069-0.002-3.746-1.679-3.748-3.747v-24.487c0.002-2.069 1.679-3.746 3.747-3.748h15.054c2.069 0.002 3.746 1.679 3.748 3.747v4.999h-2.496v-4.996c0-0.001 0-0.001 0-0.002 0-0.69-0.56-1.25-1.25-1.25 0 0 0 0 0 0h-15.056c-0.69 0.001-1.249 0.56-1.25 1.25v24.487c0 0.688 0.562 1.248 1.25 1.248h15.054c0 0 0 0 0 0 0.69 0 1.249-0.559 1.25-1.248v-5.001zM26.11 10.101l-1.767 1.767 2.875 2.873h-16.16v2.5h16.16l-2.875 2.873 1.767 1.767 5.89-5.89-5.89-5.89z"></path>
</symbol>
<symbol id="icon-dollar" viewBox="0 0 32 32">
<path fill="#6e78e8" style="fill: var(--color4, #6e78e8)" d="M5.053 0c-2.791 0-5.053 2.262-5.053 5.053v0 21.895c0 2.791 2.262 5.053 5.053 5.053v0h21.895c2.791 0 5.053-2.262 5.053-5.053v0-21.895c0-2.791-2.262-5.053-5.053-5.053v0h-21.895zM13.265 13.136c0 0.995 0.765 1.634 3.144 2.253s4.925 1.635 4.925 4.611c0 2.147-1.624 3.332-3.667 3.72v2.253h-3.144v-2.274c-2.012-0.429-3.731-1.718-3.855-4.013h2.305c0.115 1.236 0.964 2.2 3.123 2.2 2.316 0 2.829-1.152 2.829-1.875 0-0.974-0.525-1.896-3.144-2.525-2.924-0.702-4.925-1.907-4.925-4.328 0-2.021 1.635-3.341 3.667-3.782v-2.264h3.144v2.295c2.189 0.535 3.29 2.189 3.363 3.992h-2.316c-0.062-1.309-0.754-2.2-2.619-2.2-1.771 0-2.829 0.797-2.829 1.939z"></path>
</symbol>
<symbol id="icon-close" viewBox="0 0 32 32">
<path stroke-linejoin="miter" stroke-linecap="butt" stroke-miterlimit="4" stroke-width="1.7778" d="M1.778 1.778l28.444 28.444M1.778 30.222l28.444-28.444"></path>
</symbol>
<symbol id="icon-arrow_bottom" viewBox="0 0 32 32">
<path stroke-linejoin="miter" stroke-linecap="butt" stroke-miterlimit="4" stroke-width="1.6" d="M1.6 8.8l14.4 14.4 14.4-14.4"></path>
</symbol>
<symbol id="icon-btn-plus" viewBox="0 0 32 32">
<path fill="#24cca7" style="fill: var(--color2, #24cca7)" d="M25.514 13.405c0 5.254-4.259 9.513-9.514 9.513s-9.514-4.259-9.514-9.514c0-5.254 4.259-9.514 9.514-9.514s9.514 4.259 9.514 9.514z"></path>
<path fill="none" stroke="#fff" style="stroke: var(--color6, #fff)" stroke-linejoin="miter" stroke-linecap="butt" stroke-miterlimit="4" stroke-width="0.8649" d="M16 9.081v8.649M11.676 13.405h8.649"></path>
</symbol>
<symbol id="icon-btn1" viewBox="0 0 32 32">
<path fill="#ff6596" style="fill: var(--color7, #ff6596)" d="M25.514 13.405c0 5.254-4.259 9.513-9.514 9.513s-9.514-4.259-9.514-9.514c0-5.254 4.259-9.514 9.514-9.514s9.514 4.259 9.514 9.514z"></path>
<path fill="none" stroke="#fff" style="stroke: var(--color6, #fff)" stroke-linejoin="miter" stroke-linecap="butt" stroke-miterlimit="4" stroke-width="0.8649" d="M11.676 13.405h8.649"></path>
</symbol>
</defs>
</svg>
