<svg aria-hidden="true" style="position:absolute;width:0;height:0;overflow:hidden" xmlns="http://www.w3.org/2000/svg"><defs><symbol id="logo" viewBox="0 0 80 20"><path fill="#24cca7" style="fill:var(--color1, #24cca7)" d="m2.347 4.762 10.132-2.836-.537-1.112A1.411 1.411 0 0 0 10.03.153L.96 4.762h1.387zM15.508 1.905c-.122 0-.244.018-.366.055L5.76 4.763h11.519l-.433-1.737c-.166-.677-.727-1.12-1.338-1.12z"/><path fill="#4a56e2" style="fill:var(--color2, #4a56e2)" d="M17.725 5.358h-16.6A1.124 1.124 0 0 0 0 6.472v12.414C0 19.501.503 20 1.123 20h16.6c.62 0 1.123-.499 1.123-1.114v-3.108h-6.664a1.903 1.903 0 0 1-1.909-1.894v-2.478c0-.513.207-.978.541-1.319a1.893 1.893 0 0 1 1.366-.572h6.666V6.473a1.116 1.116 0 0 0-1.121-1.114z"/><path fill="#4a56e2" style="fill:var(--color2, #4a56e2)" d="M19.634 10.579a1.112 1.112 0 0 0-.757-.292h-6.695c-.62 0-1.123.499-1.123 1.114v2.48c0 .615.503 1.114 1.123 1.114h6.695c.128 0 .249-.022.364-.06.148-.049.281-.129.393-.232.225-.203.366-.497.366-.822v-2.48c0-.325-.141-.619-.366-.822zm-5.107 2.284a.56.56 0 0 1-.561.557h-.373a.56.56 0 0 1-.561-.557v-.37c0-.178.083-.336.216-.437a.569.569 0 0 1 .346-.12h.373c.31 0 .561.25.561.557v.37z"/><path style="fill:var(--color3, #000)" d="M45.42 4.97 42.675 15.5H39.57l-1.68-6.93-1.74 6.93h-3.105l-2.67-10.53h2.745l1.515 7.665L36.51 4.97h2.82l1.8 7.665 1.53-7.665h2.76zM46.196 11.3c0-.86.16-1.615.48-2.265.33-.65.775-1.15 1.335-1.5s1.185-.525 1.875-.525c.59 0 1.105.12 1.545.36.45.24.795.555 1.035.945V7.13h2.565v8.37h-2.565v-1.185c-.25.39-.6.705-1.05.945-.44.24-.955.36-1.545.36-.68 0-1.3-.175-1.86-.525-.56-.36-1.005-.865-1.335-1.515-.32-.66-.48-1.42-.48-2.28zm6.27.015c0-.64-.18-1.145-.54-1.515-.35-.37-.78-.555-1.29-.555s-.945.185-1.305.555c-.35.36-.525.86-.525 1.5s.175 1.15.525 1.53c.36.37.795.555 1.305.555s.94-.185 1.29-.555c.36-.37.54-.875.54-1.515zM59.452 4.4v11.1h-2.565V4.4h2.565zM63.876 4.4v11.1h-2.565V4.4h2.565zM73.625 11.18c0 .24-.015.49-.045.75h-5.805c.04.52.205.92.495 1.2.3.27.665.405 1.095.405.64 0 1.085-.27 1.335-.81h2.73a3.698 3.698 0 0 1-.765 1.485c-.36.44-.815.785-1.365 1.035s-1.165.375-1.845.375c-.82 0-1.55-.175-2.19-.525s-1.14-.85-1.5-1.5c-.36-.65-.54-1.41-.54-2.28s.175-1.63.525-2.28c.36-.65.86-1.15 1.5-1.5s1.375-.525 2.205-.525c.81 0 1.53.17 2.16.51s1.12.825 1.47 1.455c.36.63.54 1.365.54 2.205zM71 10.505c0-.44-.15-.79-.45-1.05s-.675-.39-1.125-.39c-.43 0-.795.125-1.095.375-.29.25-.47.605-.54 1.065H71zM79.643 13.325V15.5h-1.305c-.93 0-1.655-.225-2.175-.675-.52-.46-.78-1.205-.78-2.235V9.26h-1.02V7.13h1.02V5.09h2.565v2.04h1.68v2.13h-1.68v3.36c0 .25.06.43.18.54s.32.165.6.165h.915z"/></symbol></defs></svg>